<svg width="52" height="44" viewBox="0 0 52 44" fill="none" xmlns="http://www.w3.org/2000/svg">
<path fill-rule="evenodd" clip-rule="evenodd" d="M37.7319 17.1758H38.7399V20.6798H38.8339C39.1499 19.9828 39.8119 19.5718 40.7789 19.5718C42.1149 19.5718 42.9589 20.4278 42.9589 21.9098V25.9998H41.9509V22.1558C41.9509 21.0368 41.4469 20.4808 40.4919 20.4808C39.3609 20.4808 38.7399 21.1958 38.7399 22.2618V25.9998H37.7319V17.1758ZM35.3119 21.6168C35.1479 20.9898 34.5909 20.4808 33.6829 20.4808C32.5459 20.4808 31.8309 21.3888 31.8309 22.8188C31.8309 24.2778 32.5579 25.2028 33.6829 25.2028C34.5319 25.2028 35.1239 24.8108 35.3119 24.0958H36.3309C36.1489 25.2558 35.2059 26.1118 33.6889 26.1118C31.9189 26.1118 30.7879 24.8278 30.7879 22.8188C30.7879 20.8498 31.9129 19.5718 33.6829 19.5718C35.2179 19.5718 36.1549 20.4918 36.3309 21.6168H35.3119ZM28.7789 18.0488V19.6838H30.1859V20.5278H28.7789V24.1018C28.7789 24.8458 29.0609 25.1618 29.7169 25.1618C29.8989 25.1618 29.9979 25.1558 30.1859 25.1388V25.9888C29.9859 26.0238 29.7929 26.0468 29.5939 26.0468C28.2929 26.0468 27.7719 25.5668 27.7719 24.3598V20.5278H26.7519V19.6838H27.7719V18.0488H28.7789ZM24.5789 23.6448V23.0648L22.8799 23.1758C21.9189 23.2398 21.4969 23.5738 21.4969 24.2068C21.4969 24.8518 22.0419 25.2268 22.7739 25.2268C23.8119 25.2268 24.5789 24.5468 24.5789 23.6448V23.6448ZM20.4539 24.2308C20.4539 23.0998 21.2859 22.4488 22.7569 22.3618L24.5789 22.2498V21.6758C24.5789 20.8968 24.0929 20.4688 23.1489 20.4688C22.3939 20.4688 21.8659 20.7558 21.7259 21.2538H20.7059C20.8409 20.2398 21.8369 19.5718 23.1849 19.5718C24.7259 19.5718 25.5869 20.3638 25.5869 21.6758V25.9998H24.6259V25.0688H24.5319C24.1219 25.7418 23.4309 26.1118 22.5869 26.1118C21.3619 26.1118 20.4539 25.3848 20.4539 24.2308V24.2308ZM12.7699 25.9998H11.7739L9.47095 17.5448H10.5719L12.2539 24.4178H12.3239L14.2169 17.5448H15.2829L17.1759 24.4178H17.2459L18.9279 17.5448H20.0289L17.7269 25.9998H16.7309L14.7849 19.3258H14.7149L12.7699 25.9998Z" fill="white"/>
</svg>
