<svg width="60" height="44" viewBox="0 0 60 44" fill="none" xmlns="http://www.w3.org/2000/svg">
<g clip-path="url(#clip0_1019_845)">
<path fill-rule="evenodd" clip-rule="evenodd" d="M20.2074 19.6836H21.1684V20.6206H21.2624C21.4494 20.0056 22.1764 19.5726 23.0144 19.5726C23.1784 19.5726 23.3894 19.5836 23.5184 19.6016V20.6096C23.4364 20.5856 23.0724 20.5506 22.8734 20.5506C21.9124 20.5506 21.2154 21.1956 21.2154 22.0856V25.9996H20.2074V19.6836ZM48.3424 19.5726C49.6664 19.5726 50.5865 20.2286 50.7215 21.2656H49.7254C49.5904 20.7616 49.0984 20.4276 48.3364 20.4276C47.5864 20.4276 47.0005 20.8086 47.0005 21.3706C47.0005 21.8046 47.3525 22.0746 48.0965 22.2556L49.0695 22.4906C50.2585 22.7776 50.8325 23.2926 50.8325 24.2016C50.8325 25.3316 49.7374 26.1116 48.3014 26.1116C46.8954 26.1116 45.9284 25.4376 45.8174 24.3886H46.8545C47.0245 24.9216 47.5284 25.2616 48.3364 25.2616C49.1864 25.2616 49.7954 24.8576 49.7954 24.2776C49.7954 23.8436 49.4674 23.5506 48.7934 23.3866L47.7094 23.1226C46.5264 22.8356 45.9874 22.3266 45.9874 21.4126C45.9874 20.3636 47.0004 19.5726 48.3424 19.5726V19.5726ZM41.6774 25.2036C40.5224 25.2036 39.8314 24.3186 39.8314 22.8416C39.8314 21.3706 40.5284 20.4806 41.6774 20.4806C42.8194 20.4806 43.5345 21.3946 43.5345 22.8416C43.5345 24.3006 42.8254 25.2036 41.6774 25.2036V25.2036ZM43.5114 17.1756V20.6796H43.4235C43.0655 19.9886 42.3214 19.5726 41.4424 19.5726C39.8374 19.5726 38.7885 20.8616 38.7885 22.8416C38.7885 24.8286 39.8254 26.1116 41.4424 26.1116C42.3154 26.1116 43.0655 25.6956 43.4645 24.9926H43.5584V25.9996H44.5195V17.1756H43.5114ZM34.5104 25.2036C33.3154 25.2036 32.6414 24.3356 32.6414 22.8416C32.6414 21.3416 33.3154 20.4806 34.5104 20.4806C35.7064 20.4806 36.3794 21.3416 36.3794 22.8416C36.3794 24.3356 35.7064 25.2036 34.5104 25.2036ZM34.5104 19.5726C32.7114 19.5726 31.5984 20.8086 31.5984 22.8416C31.5984 24.8696 32.7114 26.1116 34.5104 26.1116C36.3094 26.1116 37.4224 24.8696 37.4224 22.8416C37.4224 20.8086 36.3094 19.5726 34.5104 19.5726ZM17.4394 25.9996H18.4474V19.6836H17.4394V25.9996ZM17.2404 17.7616C17.2404 17.3746 17.5574 17.0586 17.9434 17.0586C18.3304 17.0586 18.6464 17.3746 18.6464 17.7616C18.6464 18.1486 18.3304 18.4646 17.9434 18.4646C17.5574 18.4646 17.2404 18.1486 17.2404 17.7616ZM11.1034 22.6836L12.4274 18.9106H12.5204L13.8454 22.6836H11.1034ZM12.9954 17.5446H11.9524L8.83545 25.9996H9.94245L10.7924 23.5796H14.1554L15.0054 25.9996H16.1124L12.9954 17.5446ZM27.8634 22.0446H25.9994V18.4826H27.8634C29.0874 18.4826 29.7614 19.1216 29.7614 20.2816C29.7614 21.4006 29.0644 22.0446 27.8634 22.0446ZM28.1384 17.5446H24.9454V25.9996H25.9994V22.9826H28.1264C29.7144 22.9826 30.8454 21.8636 30.8454 20.2816C30.8454 18.6696 29.7384 17.5446 28.1384 17.5446V17.5446Z" fill="white"/>
</g>
<defs>
<clipPath id="clip0_1019_845">
<rect width="43" height="44" fill="white" transform="translate(8.49219)"/>
</clipPath>
</defs>
</svg>
