<svg width="82" height="44" viewBox="0 0 82 44" fill="none" xmlns="http://www.w3.org/2000/svg">
<g clip-path="url(#clip0_1019_849)">
<path d="M12.6099 26V18.4941H9.88525V17.5449H16.3892V18.4941H13.6646V26H12.6099ZM20.3413 26L17.2241 17.5449H18.3315L20.8159 24.6347H20.9097L23.3941 17.5449H24.5015L21.3843 26H20.3413ZM34.3223 25.1562C33.6016 25.789 32.6114 26.1582 31.586 26.1582C29.9044 26.1582 28.7266 25.1621 28.7266 23.7441C28.7266 22.7421 29.2715 21.9804 30.4024 21.3828C30.4786 21.3476 30.6368 21.2656 30.7305 21.2187C29.9512 20.3984 29.67 19.8535 29.67 19.2382C29.67 18.1542 30.5899 17.3456 31.8262 17.3456C33.0742 17.3456 33.9824 18.1425 33.9824 19.2499C33.9824 20.1171 33.4609 20.7499 32.1543 21.4354L34.2695 23.7088C34.5332 23.1815 34.6679 22.49 34.6679 21.4354V21.2889H35.6523V21.4412C35.6523 22.7537 35.4179 23.7088 34.955 24.4236L36.4258 26H35.1016L34.3223 25.1562ZM29.7813 23.6738C29.7813 24.623 30.5489 25.2676 31.6797 25.2676C32.4473 25.2676 33.2383 24.9629 33.7012 24.4766L31.3106 21.8633C31.2461 21.8867 31.0938 21.9629 31.0118 22.0039C30.1973 22.4258 29.7813 23.0117 29.7813 23.6738ZM32.9922 19.2852C32.9922 18.629 32.5176 18.1836 31.832 18.1836C31.1582 18.1836 30.6777 18.6406 30.6777 19.2969C30.6777 19.7657 30.9179 20.1758 31.5859 20.8379C32.6172 20.3105 32.9922 19.8887 32.9922 19.2852V19.2852ZM46.5098 26V22.1504H41.8692V26H40.8145V17.5449H41.8692V21.2011H46.5098V17.5449H47.5645V26H46.5098ZM49.1553 22.8418C49.1553 20.8086 50.2686 19.5723 52.0674 19.5723C53.8662 19.5723 54.9795 20.8086 54.9795 22.8418C54.9795 24.8691 53.8662 26.1113 52.0674 26.1113C50.2686 26.1113 49.1553 24.8691 49.1553 22.8418ZM53.9365 22.8418C53.9365 21.3418 53.2627 20.4805 52.0674 20.4805C50.8721 20.4805 50.1983 21.3418 50.1983 22.8418C50.1983 24.3359 50.8721 25.2031 52.0674 25.2031C53.2627 25.2031 53.9365 24.3359 53.9365 22.8418ZM56.4419 19.6836H57.4028V20.6797H57.4966C57.7837 19.9766 58.4165 19.5723 59.2603 19.5723C60.1158 19.5723 60.7134 20.0235 61.0064 20.6797H61.1002C61.44 20.0117 62.1607 19.5723 63.0338 19.5723C64.3229 19.5723 65.0436 20.3106 65.0436 21.6348V26H64.0358V21.8691C64.0358 20.9375 63.5963 20.4804 62.7057 20.4804C61.8268 20.4804 61.2409 21.1366 61.2409 21.9394V26H60.2331V21.7109C60.2331 20.9609 59.7116 20.4804 58.9147 20.4804C58.0885 20.4804 57.4499 21.1952 57.4499 22.0859V26H56.4421V19.6836H56.4419ZM71.9546 24.3652C71.6616 25.4433 70.6773 26.1113 69.2944 26.1113C67.5424 26.1113 66.4467 24.8457 66.4467 22.8476C66.4467 20.8613 67.56 19.5722 69.2944 19.5722C70.9995 19.5722 72.0366 20.7851 72.0366 22.748V23.1347H67.4956V23.1816C67.5483 24.4296 68.2456 25.2207 69.3179 25.2207C70.1324 25.2207 70.6831 24.9219 70.9468 24.3652H71.9546ZM67.4956 22.3203H70.9761C70.9527 21.2012 70.2847 20.4629 69.2827 20.4629C68.2749 20.4629 67.5718 21.2012 67.4956 22.3203Z" fill="white"/>
</g>
<defs>
<clipPath id="clip0_1019_849">
<rect width="65" height="44" fill="white" transform="translate(8.23438)"/>
</clipPath>
</defs>
</svg>
