<svg width="84" height="44" viewBox="0 0 84 44" fill="none" xmlns="http://www.w3.org/2000/svg">
<g clip-path="url(#clip0_1019_860)">
<path d="M14.3868 23.5715H11.0235L10.1739 25.9914H9.06653L12.1837 17.5363H13.2267L16.3439 25.9914H15.2364L14.3868 23.5715ZM11.3341 22.675H14.0763L12.7521 18.9016H12.6583L11.3341 22.675ZM21.4327 21.6086C21.2686 20.9816 20.712 20.4719 19.8038 20.4719C18.6671 20.4719 17.9522 21.3801 17.9522 22.8098C17.9522 24.2688 18.6788 25.1946 19.8038 25.1946C20.6534 25.1946 21.2452 24.802 21.4327 24.0872H22.4522C22.2706 25.2474 21.3272 26.1028 19.8096 26.1028C18.0401 26.1028 16.9092 24.8196 16.9092 22.8098C16.9092 20.841 18.0342 19.5637 19.8037 19.5637C21.3389 19.5637 22.2764 20.4836 22.4521 21.6086H21.4327ZM28.0274 21.6086C27.8633 20.9816 27.3067 20.4719 26.3985 20.4719C25.2618 20.4719 24.5469 21.3801 24.5469 22.8098C24.5469 24.2688 25.2735 25.1946 26.3985 25.1946C27.2481 25.1946 27.8399 24.802 28.0274 24.0872H29.0469C28.8653 25.2474 27.9219 26.1028 26.4043 26.1028C24.6348 26.1028 23.5039 24.8196 23.5039 22.8098C23.5039 20.841 24.6289 19.5637 26.3984 19.5637C27.9336 19.5637 28.8711 20.4836 29.0468 21.6086H28.0274ZM35.607 24.3566C35.314 25.4347 34.3297 26.1027 32.9468 26.1027C31.1948 26.1027 30.0991 24.8371 30.0991 22.839C30.0991 20.8527 31.2124 19.5636 32.9468 19.5636C34.6519 19.5636 35.689 20.7765 35.689 22.7394V23.1261H31.148V23.173C31.2007 24.421 31.898 25.2121 32.9703 25.2121C33.7848 25.2121 34.3355 24.9133 34.5992 24.3566H35.607ZM31.148 22.3117H34.6285C34.6051 21.1926 33.9371 20.4543 32.9351 20.4543C31.9273 20.4543 31.2242 21.1926 31.148 22.3117ZM39.36 19.5637C40.6842 19.5637 41.6041 20.2199 41.7389 21.2571H40.7428C40.608 20.7532 40.1158 20.4192 39.3541 20.4192C38.6041 20.4192 38.0182 20.8001 38.0182 21.3626C38.0182 21.7962 38.3698 22.0657 39.1139 22.2474L40.0866 22.4818C41.2761 22.7689 41.8503 23.2845 41.8503 24.1927C41.8503 25.3236 40.7546 26.1029 39.3191 26.1029C37.9129 26.1029 36.9461 25.4291 36.8347 24.3802H37.8718C38.0417 24.9134 38.5456 25.2532 39.3542 25.2532C40.2038 25.2532 40.8132 24.8489 40.8132 24.2688C40.8132 23.8352 40.4851 23.5422 39.8112 23.3782L38.7272 23.1145C37.5436 22.8274 37.0045 22.3176 37.0045 21.4036C37.0045 20.3547 38.0182 19.5637 39.36 19.5637V19.5637ZM45.4039 19.5637C46.7281 19.5637 47.648 20.2199 47.7828 21.2571H46.7867C46.6519 20.7532 46.1597 20.4192 45.398 20.4192C44.648 20.4192 44.0621 20.8001 44.0621 21.3626C44.0621 21.7962 44.4137 22.0657 45.1578 22.2474L46.1305 22.4818C47.32 22.7689 47.8942 23.2845 47.8942 24.1927C47.8942 25.3236 46.7985 26.1029 45.363 26.1029C43.9568 26.1029 42.99 25.4291 42.8786 24.3802H43.9157C44.0856 24.9134 44.5895 25.2532 45.3981 25.2532C46.2477 25.2532 46.8571 24.8489 46.8571 24.2688C46.8571 23.8352 46.529 23.5422 45.8551 23.3782L44.7711 23.1145C43.5875 22.8274 43.0484 22.3176 43.0484 21.4036C43.0484 20.3547 44.0621 19.5637 45.4039 19.5637ZM49.0396 22.8332C49.0396 20.8 50.1529 19.5637 51.9517 19.5637C53.7505 19.5637 54.8638 20.8 54.8638 22.8332C54.8638 24.8605 53.7505 26.1027 51.9517 26.1027C50.1529 26.1027 49.0396 24.8605 49.0396 22.8332ZM53.8209 22.8332C53.8209 21.3332 53.1471 20.4719 51.9518 20.4719C50.7565 20.4719 50.0827 21.3332 50.0827 22.8332C50.0827 24.3273 50.7565 25.1945 51.9518 25.1945C53.1471 25.1945 53.8209 24.3273 53.8209 22.8332ZM56.3263 19.675H57.2872V20.6125H57.381C57.5685 19.9973 58.2951 19.5637 59.133 19.5637C59.2971 19.5637 59.508 19.5754 59.6369 19.593V20.6008C59.5549 20.5774 59.1916 20.5422 58.9924 20.5422C58.0315 20.5422 57.3342 21.1867 57.3342 22.0774V25.9915H56.3264V19.675H56.3263ZM60.6007 17.7531C60.6007 17.3664 60.9171 17.05 61.3038 17.05C61.6905 17.05 62.0069 17.3664 62.0069 17.7531C62.0069 18.1398 61.6905 18.4562 61.3038 18.4562C60.9171 18.4562 60.6007 18.1398 60.6007 17.7531ZM60.7999 19.675H61.8077V25.9914H60.7999V19.675ZM68.8009 24.3566C68.5079 25.4347 67.5236 26.1027 66.1407 26.1027C64.3887 26.1027 63.293 24.8371 63.293 22.839C63.293 20.8527 64.4063 19.5636 66.1407 19.5636C67.8458 19.5636 68.8829 20.7765 68.8829 22.7394V23.1261H64.3419V23.173C64.3946 24.421 65.0919 25.2121 66.1642 25.2121C66.9787 25.2121 67.5294 24.9133 67.7931 24.3566H68.8009ZM64.3419 22.3117H67.8224C67.799 21.1926 67.131 20.4543 66.129 20.4543C65.1212 20.4543 64.4181 21.1926 64.3419 22.3117ZM72.5538 19.5637C73.878 19.5637 74.7979 20.2199 74.9327 21.2571H73.9366C73.8018 20.7532 73.3096 20.4192 72.5479 20.4192C71.7979 20.4192 71.212 20.8001 71.212 21.3626C71.212 21.7962 71.5636 22.0657 72.3077 22.2474L73.2804 22.4818C74.4699 22.7689 75.0441 23.2845 75.0441 24.1927C75.0441 25.3236 73.9484 26.1029 72.5129 26.1029C71.1067 26.1029 70.1399 25.4291 70.0285 24.3802H71.0656C71.2355 24.9134 71.7394 25.2532 72.548 25.2532C73.3976 25.2532 74.007 24.8489 74.007 24.2688C74.007 23.8352 73.6789 23.5422 73.005 23.3782L71.921 23.1145C70.7374 22.8274 70.1983 22.3176 70.1983 21.4036C70.1983 20.3547 71.212 19.5637 72.5538 19.5637V19.5637Z" fill="white"/>
</g>
<defs>
<clipPath id="clip0_1019_860">
<rect width="67" height="44" fill="white" transform="translate(8.72656)"/>
</clipPath>
</defs>
</svg>
