<svg width="61" height="44" viewBox="0 0 61 44" fill="none" xmlns="http://www.w3.org/2000/svg">
<g clip-path="url(#clip0_1019_865)">
<path fill-rule="evenodd" clip-rule="evenodd" d="M50.5893 18.0337V19.6687H51.9953V20.5127H50.5893V24.0867C50.5893 24.8307 50.8703 25.1467 51.5263 25.1467C51.7083 25.1467 51.8083 25.1407 51.9953 25.1237V25.9727C51.7963 26.0087 51.6033 26.0317 51.4033 26.0317C50.1033 26.0317 49.5813 25.5517 49.5813 24.3447V20.5127H48.5623V19.6687H49.5813V18.0337H50.5893ZM44.4583 19.6687H45.4193V20.6057H45.5123C45.7003 19.9907 46.4263 19.5567 47.2643 19.5567C47.4283 19.5567 47.6393 19.5687 47.7683 19.5867V20.5947C47.6863 20.5707 47.3233 20.5357 47.1243 20.5357C46.1633 20.5357 45.4653 21.1797 45.4653 22.0707V25.9847H44.4583V19.6687ZM41.9953 22.8267C41.9953 21.3267 41.3213 20.4657 40.1263 20.4657C38.9313 20.4657 38.2573 21.3267 38.2573 22.8267C38.2573 24.3207 38.9313 25.1877 40.1263 25.1877C41.3213 25.1877 41.9953 24.3207 41.9953 22.8267ZM37.2143 22.8267C37.2143 20.7937 38.3273 19.5567 40.1263 19.5567C41.9253 19.5567 43.0383 20.7937 43.0383 22.8267C43.0383 24.8537 41.9253 26.0967 40.1263 26.0967C38.3273 26.0967 37.2143 24.8537 37.2143 22.8267ZM35.1063 22.8267C35.1063 21.3497 34.4143 20.4657 33.2603 20.4657C32.1173 20.4657 31.3973 21.3737 31.3973 22.8267C31.3973 24.2737 32.1173 25.1877 33.2543 25.1877C34.4143 25.1877 35.1063 24.3037 35.1063 22.8267ZM36.1493 22.8267C36.1493 24.8017 35.1003 26.0967 33.4943 26.0967C32.5923 26.0967 31.8653 25.7037 31.5203 25.0357H31.4263V28.0947H30.4183V19.6687H31.3793V20.7227H31.4733C31.8773 19.9967 32.6333 19.5567 33.4943 19.5567C35.1063 19.5567 36.1493 20.8407 36.1493 22.8267V22.8267ZM28.1013 22.8267C28.1013 21.3497 27.4103 20.4657 26.2563 20.4657C25.1133 20.4657 24.3923 21.3737 24.3923 22.8267C24.3923 24.2737 25.1133 25.1877 26.2503 25.1877C27.4103 25.1877 28.1013 24.3037 28.1013 22.8267ZM29.1443 22.8267C29.1443 24.8017 28.0953 26.0967 26.4903 26.0967C25.5883 26.0967 24.8613 25.7037 24.5153 25.0357H24.4223V28.0947H23.4143V19.6687H24.3753V20.7227H24.4683C24.8733 19.9967 25.6293 19.5567 26.4903 19.5567C28.1013 19.5567 29.1443 20.8407 29.1443 22.8267V22.8267ZM21.4993 25.9847H20.5383V24.9947H20.4443C20.1283 25.6977 19.4543 26.0967 18.4873 26.0967C17.0693 26.0967 16.3313 25.2527 16.3313 23.7587V19.6687H17.3393V23.5127C17.3393 24.6487 17.7613 25.1767 18.7693 25.1767C19.8823 25.1767 20.4913 24.5137 20.4913 23.4067V19.6687H21.4993V25.9847ZM9.80931 23.7757C9.93831 24.6607 10.7813 25.2227 11.9833 25.2227C13.1193 25.2227 13.9573 24.6077 13.9573 23.7697C13.9573 23.0497 13.4303 22.5927 12.2643 22.2997L11.1803 22.0177C9.65131 21.6317 8.98831 20.9397 8.98831 19.7387C8.98831 18.3037 10.1903 17.3307 11.9773 17.3307C13.6113 17.3307 14.8303 18.3037 14.9183 19.6687H13.8583C13.7113 18.8017 12.9963 18.2857 11.9423 18.2857C10.8173 18.2857 10.0723 18.8477 10.0723 19.7037C10.0723 20.3657 10.5353 20.7467 11.7013 21.0457L12.5863 21.2797C14.3383 21.7197 15.0413 22.3987 15.0413 23.6407C15.0413 25.1937 13.8173 26.1837 11.8833 26.1837C10.0903 26.1837 8.85431 25.2347 8.74231 23.7757H9.80931Z" fill="white"/>
</g>
<defs>
<clipPath id="clip0_1019_865">
<rect width="44" height="44" fill="white" transform="translate(8.46875)"/>
</clipPath>
</defs>
</svg>
