<svg width="106" height="26" viewBox="0 0 106 26" fill="none" xmlns="http://www.w3.org/2000/svg">
<g clip-path="url(#clip0_1019_479)">
<path d="M44.3858 25.2853V8.05845H44.2735L37.3379 25.2853H34.6903L27.7382 8.05845H27.6271V25.2853H24.3744V1.87857H28.5041L35.9503 20.5318H36.0779L43.5075 1.87984H47.6538V25.2866H44.3858V25.2853ZM65.6392 25.2853H62.338V22.3982H62.2589C61.3334 24.442 59.6279 25.5928 57.0608 25.5928C53.4098 25.5928 51.1758 23.1765 51.1758 19.2675V8.22048H54.62V18.5862C54.62 21.1811 55.8327 22.5756 58.2071 22.5756C60.6964 22.5756 62.1951 20.8239 62.1951 18.1639V8.22048H65.638V25.2853H65.6392ZM75.0781 7.91174C78.9844 7.91174 81.5196 10.1188 81.632 13.2649H78.3946C78.2031 11.6115 77.007 10.573 75.0781 10.573C73.2118 10.573 71.9684 11.4967 71.9684 12.8605C71.9684 13.9309 72.7344 14.6593 74.5509 15.0816L77.2776 15.7144C80.7065 16.5258 82.0137 17.8883 82.0137 20.3532C82.0137 23.4686 79.1593 25.6094 75.2058 25.6094C71.0123 25.6094 68.4911 23.5171 68.1732 20.2728H71.5854C71.9046 22.0563 73.1007 22.9328 75.2058 22.9328C77.2776 22.9328 78.5542 22.0563 78.5542 20.6619C78.5542 19.5583 77.9325 18.9102 76.0981 18.488L73.3714 17.8399C70.1825 17.0935 68.6034 15.5358 68.6034 13.0557C68.6034 10.0053 71.2191 7.91174 75.0781 7.91174V7.91174ZM84.4034 3.71187C84.4034 2.59173 85.297 1.69996 86.3961 1.69996C87.4965 1.69996 88.3748 2.59301 88.3748 3.71187C88.3748 4.81414 87.4965 5.7225 86.3961 5.7225C85.8658 5.71812 85.3587 5.50423 84.9856 5.12753C84.6125 4.75083 84.4036 4.2419 84.4047 3.71187H84.4034ZM84.674 8.22048H88.1182V25.2853H84.674V8.22048V8.22048ZM102.659 14.0929C102.308 12.2762 100.969 10.832 98.7213 10.832C96.0584 10.832 94.3044 13.0863 94.3044 16.7516C94.3044 20.4999 96.0737 22.6738 98.7532 22.6738C100.872 22.6738 102.261 21.4899 102.659 19.5099H105.977C105.611 23.1433 102.756 25.6094 98.7226 25.6094C93.9227 25.6094 90.7977 22.2668 90.7977 16.7529C90.7977 11.3347 93.9227 7.91174 98.6907 7.91174C103.012 7.91174 105.643 10.735 105.945 14.0929H102.661H102.659ZM13.8403 4.16222C12.9492 5.22622 11.5361 6.07078 10.1216 5.94576C9.93654 4.50668 10.645 2.97319 11.4442 2.03549C12.3339 0.938317 13.8709 0.157539 15.1309 0.09375C15.2853 1.59662 14.7019 3.06632 13.8415 4.16349L13.8403 4.16222ZM15.1155 6.22771C15.9121 6.29022 18.2112 6.539 19.6831 8.75375C19.5605 8.84816 16.9551 10.3765 16.9857 13.589C17.0163 17.4291 20.2958 18.7074 20.3265 18.7393C20.2958 18.8337 19.8069 20.5496 18.6108 22.3268C17.5678 23.8883 16.4955 25.4167 14.7785 25.4486C13.1228 25.4792 12.5701 24.4497 10.6706 24.4497C8.76977 24.4497 8.15574 25.4167 6.59323 25.4792C4.93753 25.5405 3.68268 23.8246 2.63973 22.2643C0.492552 19.1131 -1.13123 13.3721 1.07594 9.50264C2.14825 7.56855 4.11032 6.35146 6.22558 6.31956C7.85064 6.29022 9.35315 7.41291 10.3336 7.41291C11.3152 7.41291 13.0616 6.10268 15.1155 6.22643V6.22771Z" fill="#1D1D1F"/>
</g>
<defs>
<clipPath id="clip0_1019_479">
<rect width="106" height="25.5156" fill="white" transform="translate(0 0.09375)"/>
</clipPath>
</defs>
</svg>
