<svg width="217" height="57" viewBox="0 0 217 57" fill="none" xmlns="http://www.w3.org/2000/svg">
<path d="M22.17 37.2836L14.83 30.3936C14.6603 30.2699 14.5209 30.1094 14.4222 29.924C14.3235 29.7387 14.268 29.5334 14.26 29.3236C14.2507 29.1794 14.2728 29.0349 14.3247 28.9001C14.3766 28.7652 14.4572 28.6432 14.5608 28.5425C14.6644 28.4417 14.7886 28.3646 14.9248 28.3165C15.0611 28.2684 15.2061 28.2503 15.35 28.2636H18.26C20.47 28.2636 21.92 27.4236 22.26 25.7836H15.06C14.8452 25.7836 14.6391 25.6983 14.4872 25.5464C14.3353 25.3945 14.25 25.1884 14.25 24.9736C14.25 24.7588 14.3353 24.5528 14.4872 24.4009C14.6391 24.249 14.8452 24.1636 15.06 24.1636H22.23C22.09 23.4155 21.6813 22.7443 21.0808 22.2765C20.4804 21.8087 19.7297 21.5765 18.97 21.6236H15.08C14.8307 21.6236 14.5916 21.5246 14.4153 21.3483C14.239 21.172 14.14 20.9329 14.14 20.6836C14.1372 20.5599 14.1597 20.4369 14.2061 20.3221C14.2525 20.2074 14.3218 20.1033 14.4098 20.0162C14.4977 19.9292 14.6026 19.861 14.7178 19.8158C14.8331 19.7707 14.9563 19.7495 15.08 19.7536H25.96C26.0678 19.7465 26.1759 19.7622 26.2773 19.7996C26.3787 19.837 26.471 19.8953 26.5484 19.9708C26.6257 20.0463 26.6863 20.1371 26.7262 20.2376C26.7661 20.338 26.7844 20.4457 26.78 20.5536C26.7829 20.6612 26.7635 20.7682 26.7231 20.8679C26.6826 20.9676 26.622 21.0578 26.545 21.133C26.468 21.2081 26.3762 21.2665 26.2756 21.3045C26.1749 21.3424 26.0675 21.3592 25.96 21.3536H23.05C23.7992 22.1059 24.2504 23.1042 24.32 24.1636H26.06C26.2748 24.1636 26.4809 24.249 26.6328 24.4009C26.7847 24.5528 26.87 24.7588 26.87 24.9736C26.87 25.1884 26.7847 25.3945 26.6328 25.5464C26.4809 25.6983 26.2748 25.7836 26.06 25.7836H24.32C23.97 28.3036 22.03 30.1436 18.17 30.1436H17.35L23.62 35.9836C23.7428 36.0832 23.8429 36.2079 23.9136 36.3493C23.9843 36.4907 24.024 36.6456 24.03 36.8036C24.0301 36.9257 24.0056 37.0465 23.958 37.1589C23.9104 37.2713 23.8407 37.373 23.7529 37.4579C23.6652 37.5428 23.5614 37.6092 23.4475 37.6532C23.3336 37.6971 23.212 37.7176 23.09 37.7136C22.9144 37.7143 22.7409 37.676 22.5818 37.6017C22.4228 37.5273 22.2821 37.4187 22.17 37.2836V37.2836Z" fill="#6E6E73"/>
<path d="M20.5 11.4344C23.9216 11.4344 27.2664 12.449 30.1114 14.35C32.9563 16.2509 35.1737 18.9528 36.4831 22.114C37.7925 25.2751 38.1351 28.7536 37.4676 32.1094C36.8001 35.4653 35.1524 38.5479 32.733 40.9673C30.3135 43.3868 27.2309 45.0344 23.8751 45.702C20.5192 46.3695 17.0407 46.0269 13.8796 44.7175C10.7184 43.4081 8.01653 41.1907 6.11558 38.3457C4.21464 35.5008 3.20001 32.156 3.20001 28.7344C3.2053 24.1478 5.02968 19.7505 8.27291 16.5073C11.5161 13.264 15.9134 11.4397 20.5 11.4344M20.5 9.23438C16.6433 9.23438 12.8731 10.378 9.66639 12.5207C6.45963 14.6634 3.96027 17.7089 2.48436 21.272C1.00845 24.8352 0.622284 28.756 1.3747 32.5386C2.12711 36.3213 3.9843 39.7958 6.71143 42.523C9.43855 45.2501 12.9131 47.1073 16.6957 47.8597C20.4784 48.6121 24.3992 48.2259 27.9623 46.75C31.5255 45.2741 34.571 42.7748 36.7137 39.568C38.8564 36.3612 40 32.5911 40 28.7344C40 23.5627 37.9455 18.6028 34.2886 14.9458C30.6316 11.2888 25.6717 9.23438 20.5 9.23438V9.23438Z" fill="#6E6E73"/>
</svg>
