<svg width="217" height="57" viewBox="0 0 217 57" fill="none" xmlns="http://www.w3.org/2000/svg">
<g clip-path="url(#clip0_1019_620)">
<path d="M34.405 17.7977L20.405 10.2167C19.8202 9.8989 19.1651 9.73242 18.4995 9.73242C17.8339 9.73242 17.1788 9.8989 16.594 10.2167L2.594 17.7977C1.96043 18.1411 1.4314 18.6492 1.06281 19.2685C0.694219 19.8877 0.499766 20.5951 0.5 21.3157V36.1537C0.499863 36.8744 0.694466 37.5818 1.06324 38.2011C1.43201 38.8203 1.96125 39.3284 2.595 39.6717L16.595 47.2527C17.1798 47.5707 17.8349 47.7372 18.5005 47.7372C19.1661 47.7372 19.8212 47.5707 20.406 47.2527L34.406 39.6717C35.0396 39.3283 35.5686 38.8201 35.9372 38.2009C36.3058 37.5816 36.5002 36.8743 36.5 36.1537V21.3157C36.5001 20.595 36.3055 19.8876 35.9368 19.2683C35.568 18.6491 35.0388 18.1409 34.405 17.7977V17.7977ZM17.548 11.9757C17.8397 11.8175 18.1662 11.7347 18.498 11.7347C18.8298 11.7347 19.1563 11.8175 19.448 11.9757L33.248 19.4457L26.865 23.0907L12.443 14.7397L17.548 11.9757ZM18.5 27.8677L3.753 19.4457L10.382 15.8567L24.855 24.2347L18.5 27.8677ZM3.548 37.9127C3.23103 37.7411 2.96631 37.4871 2.78183 37.1775C2.59736 36.8678 2.49998 36.5141 2.5 36.1537V21.3157C2.50607 21.2276 2.5181 21.1401 2.536 21.0537L17.5 29.5997V45.4677L3.548 37.9127ZM34.5 36.1537C34.5 36.5141 34.4026 36.8678 34.2182 37.1775C34.0337 37.4871 33.769 37.7411 33.452 37.9127L19.5 45.4677V29.5997L34.464 21.0547C34.4819 21.1411 34.4939 21.2286 34.5 21.3167V36.1537Z" fill="#6E6E73"/>
</g>
<defs>
<clipPath id="clip0_1019_620">
<rect width="36" height="56" fill="white" transform="translate(0.5 0.734375)"/>
</clipPath>
</defs>
</svg>
