<svg width="32" height="88" viewBox="0 0 32 88" fill="none" xmlns="http://www.w3.org/2000/svg">
<g clip-path="url(#clip0_1019_869)">
<path d="M22.1988 27.343L18.6988 23.843C19.5805 22.7632 20.0136 21.3859 19.9087 19.9958C19.8038 18.6057 19.1688 17.309 18.135 16.3738C17.1012 15.4385 15.7476 14.9362 14.354 14.9706C12.9603 15.005 11.6332 15.5735 10.6468 16.5586C9.66038 17.5438 9.09016 18.8702 9.05396 20.2638C9.01776 21.6574 9.51834 23.0116 10.4523 24.0466C11.3862 25.0816 12.682 25.7183 14.072 25.825C15.462 25.9317 16.8398 25.5003 17.9208 24.62L21.4208 28.12C21.4719 28.1711 21.5325 28.2116 21.5993 28.2393C21.666 28.2669 21.7375 28.2811 21.8098 28.2811C21.882 28.2811 21.9536 28.2669 22.0203 28.2393C22.0871 28.2116 22.1477 28.1711 22.1988 28.12C22.2499 28.0689 22.2904 28.0083 22.318 27.9415C22.3457 27.8748 22.3599 27.8033 22.3599 27.731C22.3599 27.6588 22.3457 27.5872 22.318 27.5205C22.2904 27.4537 22.2499 27.3931 22.1988 27.342V27.343ZM10.1778 20.418C10.178 19.5638 10.4315 18.7289 10.9062 18.0188C11.3809 17.3087 12.0555 16.7552 12.8447 16.4285C13.6339 16.1018 14.5023 16.0164 15.34 16.1831C16.1777 16.3499 16.9472 16.7613 17.5511 17.3654C18.1551 17.9694 18.5663 18.739 18.7329 19.5768C18.8994 20.4146 18.8139 21.2829 18.4869 22.0721C18.16 22.8612 17.6064 23.5357 16.8962 24.0102C16.186 24.4847 15.351 24.738 14.4968 24.738C13.3515 24.737 12.2534 24.2814 11.4436 23.4715C10.6338 22.6615 10.1786 21.5633 10.1778 20.418V20.418Z" fill="white"/>
<path d="M22.1988 71.593L18.6988 68.093C19.5805 67.0132 20.0136 65.6359 19.9087 64.2458C19.8038 62.8557 19.1688 61.559 18.135 60.6238C17.1012 59.6885 15.7476 59.1862 14.354 59.2206C12.9603 59.255 11.6332 59.8235 10.6468 60.8086C9.66038 61.7938 9.09016 63.1202 9.05396 64.5138C9.01776 65.9074 9.51834 67.2616 10.4523 68.2966C11.3862 69.3316 12.682 69.9683 14.072 70.075C15.462 70.1817 16.8398 69.7503 17.9208 68.87L21.4208 72.37C21.524 72.4732 21.6639 72.5311 21.8098 72.5311C21.9557 72.5311 22.0956 72.4732 22.1988 72.37C22.302 72.2669 22.3599 72.1269 22.3599 71.981C22.3599 71.8351 22.302 71.6952 22.1988 71.592V71.593ZM10.1778 64.668C10.178 63.8138 10.4315 62.9789 10.9062 62.2688C11.3809 61.5587 12.0555 61.0052 12.8447 60.6785C13.6339 60.3518 14.5023 60.2664 15.34 60.4331C16.1777 60.5999 16.9472 61.0113 17.5511 61.6154C18.1551 62.2194 18.5663 62.989 18.7329 63.8268C18.8994 64.6646 18.8139 65.5329 18.4869 66.3221C18.16 67.1112 17.6064 67.7857 16.8962 68.2602C16.186 68.7347 15.351 68.988 14.4968 68.988C13.3515 68.987 12.2534 68.5314 11.4436 67.7215C10.6338 66.9115 10.1786 65.8133 10.1778 64.668V64.668Z" fill="#86868B"/>
</g>
<defs>
<clipPath id="clip0_1019_869">
<rect width="15" height="88" fill="white" transform="translate(8.21875)"/>
</clipPath>
</defs>
</svg>
