<svg width="47" height="44" viewBox="0 0 47 44" fill="none" xmlns="http://www.w3.org/2000/svg">
<g clip-path="url(#clip0_1019_824)">
<path fill-rule="evenodd" clip-rule="evenodd" d="M35.3179 20.4629C36.3199 20.4629 36.9879 21.2009 37.0109 22.3199H33.5309C33.6069 21.2009 34.3099 20.4629 35.3179 20.4629ZM38.0719 23.1349V22.7479C38.0719 20.7849 37.0349 19.5719 35.3299 19.5719C33.5949 19.5719 32.4819 20.8609 32.4819 22.8479C32.4819 24.8459 33.5779 26.1109 35.3299 26.1109C36.7129 26.1109 37.6969 25.4429 37.9899 24.3649H36.9819C36.7179 24.9219 36.1679 25.2209 35.3529 25.2209C34.2809 25.2209 33.5839 24.4299 33.5309 23.1819V23.1349H38.0719ZM28.5249 19.6839H29.4849V20.6209H29.5789C29.7669 20.0059 30.4929 19.5719 31.3309 19.5719C31.4949 19.5719 31.7059 19.5839 31.8349 19.6019V20.6089C31.7529 20.5859 31.3899 20.5509 31.1909 20.5509C30.2299 20.5509 29.5319 21.6489 29.5319 22.0859V25.9999H28.5249V19.6839ZM24.2549 25.2029C23.0599 25.2029 22.3859 24.3359 22.3859 22.8419C22.3859 21.3419 23.0599 20.4809 24.2549 20.4809C25.4509 20.4809 26.1249 21.3419 26.1249 22.8419C26.1249 24.3359 25.4509 25.2029 24.2549 25.2029ZM24.2549 19.5719C22.4569 19.5719 21.3429 20.8089 21.3429 22.8419C21.3429 24.8689 22.4569 26.1109 24.2549 26.1109C26.0539 26.1109 27.1679 24.8689 27.1679 22.8419C27.1679 20.8089 26.0539 19.5719 24.2549 19.5719ZM18.7769 18.0969V19.7319H20.1839V20.5749H18.7769V24.1499C18.7769 24.8939 19.0589 25.2099 19.7149 25.2099C19.8969 25.2099 19.9959 25.2039 20.1839 25.1869V26.0359C19.9849 26.0709 19.7909 26.0949 19.5919 26.0949C18.2909 26.0949 17.7699 25.6139 17.7699 24.4069V20.5749H16.7499V19.7319H17.7699V18.0969H18.7769ZM10.6739 23.7909C10.8029 24.6759 11.6469 25.2379 12.8479 25.2379C13.9849 25.2379 14.8229 24.6229 14.8229 23.7849C14.8229 23.0649 14.2959 22.6079 13.1299 22.3149L12.0459 22.0329C10.5159 21.6469 9.85391 20.9549 9.85391 19.7539C9.85391 18.3179 11.0549 17.3459 12.8419 17.3459C14.4769 17.3459 15.6959 18.3179 15.7839 19.6839H14.7229C14.5769 18.8169 13.8619 18.3009 12.8069 18.3009C11.6819 18.3009 10.9379 18.8629 10.9379 19.7189C10.9379 20.3809 11.4009 20.7619 12.5669 21.0609L13.4519 21.2949C15.2039 21.7339 15.9069 22.4139 15.9069 23.6559C15.9069 25.2089 14.6819 26.1989 12.7489 26.1989C10.9559 26.1989 9.71891 25.2499 9.60791 23.7909H10.6739Z" fill="white"/>
</g>
<defs>
<clipPath id="clip0_1019_824">
<rect width="30" height="44" fill="white" transform="translate(8.75)"/>
</clipPath>
</defs>
</svg>
