<svg width="40" height="44" viewBox="0 0 40 44" fill="none" xmlns="http://www.w3.org/2000/svg">
<g clip-path="url(#clip0_1019_828)">
<path d="M16.6558 25.9987V19.5417H16.5855L13.9195 25.9987H13.0288L10.3628 19.5417H10.2925V25.9987H9.30811V17.5436H10.5327L13.4272 24.5983H13.521L16.4155 17.5436H17.6401V25.9987H16.6558ZM19.1724 24.2291C19.1724 23.0982 20.0044 22.4479 21.4751 22.36L23.2974 22.2487V21.6745C23.2974 20.8952 22.8111 20.4675 21.8677 20.4675C21.1118 20.4675 20.5845 20.7546 20.4439 21.2527H19.4244C19.5592 20.239 20.5553 19.5711 21.9029 19.5711C23.4439 19.5711 24.3052 20.3621 24.3052 21.6746V25.9988H23.3443V25.067H23.2505C22.8403 25.7408 22.1489 26.11 21.3052 26.11C20.0806 26.11 19.1724 25.3834 19.1724 24.2291ZM23.2974 23.6432V23.0631L21.5982 23.1744C20.6373 23.2389 20.2154 23.5728 20.2154 24.2056C20.2154 24.8501 20.7603 25.2251 21.4927 25.2251C22.5298 25.2252 23.2974 24.5455 23.2974 23.6432V23.6432ZM30.2554 21.6159C30.0913 20.9889 29.5347 20.4792 28.6265 20.4792C27.4898 20.4792 26.7749 21.3874 26.7749 22.8171C26.7749 24.2761 27.5015 25.2019 28.6265 25.2019C29.4761 25.2019 30.0679 24.8093 30.2554 24.0945H31.2749C31.0933 25.2547 30.1499 26.1101 28.6323 26.1101C26.8628 26.1101 25.7319 24.8269 25.7319 22.8171C25.7319 20.8483 26.8569 19.571 28.6264 19.571C30.1616 19.571 31.0991 20.4909 31.2748 21.6159H30.2554Z" fill="white"/>
</g>
<defs>
<clipPath id="clip0_1019_828">
<rect width="23" height="44" fill="white" transform="translate(8.5)"/>
</clipPath>
</defs>
</svg>
