<svg width="41" height="44" viewBox="0 0 41 44" fill="none" xmlns="http://www.w3.org/2000/svg">
<path fill-rule="evenodd" clip-rule="evenodd" d="M23.2075 23.7002C23.2075 24.6022 22.4395 25.2822 21.4025 25.2822C20.6705 25.2822 20.1255 24.9072 20.1255 24.2622C20.1255 23.6302 20.5475 23.2962 21.5085 23.2312L23.2075 23.1202V23.7002ZM21.8125 19.6282C20.4655 19.6282 19.4695 20.2962 19.3345 21.3092H20.3535C20.4945 20.8112 21.0215 20.5242 21.7775 20.5242C22.7215 20.5242 23.2075 20.9522 23.2075 21.7312V22.3052L21.3855 22.4172C19.9145 22.5052 19.0825 23.1552 19.0825 24.2862C19.0825 25.4402 19.9905 26.1672 21.2155 26.1672C22.0595 26.1672 22.7505 25.7982 23.1605 25.1242H23.2545V26.0552H24.2155V21.7312C24.2155 20.4192 23.3535 19.6282 21.8125 19.6282V19.6282ZM28.5815 25.2032C27.4265 25.2032 26.7355 24.3182 26.7355 22.8422C26.7355 21.3712 27.4325 20.4802 28.5815 20.4802C29.7235 20.4802 30.4385 21.3942 30.4385 22.8422C30.4385 24.3012 29.7295 25.2032 28.5815 25.2032ZM30.4155 17.1762V20.6792H30.3275C29.9695 19.9882 29.2255 19.5722 28.3465 19.5722C26.7415 19.5722 25.6925 20.8612 25.6925 22.8422C25.6925 24.8282 26.7295 26.1112 28.3465 26.1112C29.2195 26.1112 29.9695 25.6952 30.3685 24.9922H30.4615V26.0002H31.4225V17.1762H30.4155ZM15.0215 22.0452H13.1585V18.4822H15.0215C16.2465 18.4822 16.9205 19.1212 16.9205 20.2812C16.9205 21.4002 16.2235 22.0452 15.0215 22.0452V22.0452ZM15.2975 17.5452H12.1035V26.0002H13.1585V22.9822H15.2855C16.8735 22.9822 18.0045 21.8632 18.0045 20.2812C18.0045 18.6702 16.8965 17.5452 15.2975 17.5452V17.5452ZM9.23348 25.9992H10.2415V19.6832H9.23348V25.9992ZM9.03448 17.7622C9.03448 17.3752 9.35048 17.0582 9.73748 17.0582C10.1245 17.0582 10.4405 17.3752 10.4405 17.7622C10.4405 18.1482 10.1245 18.4652 9.73748 18.4652C9.35048 18.4652 9.03448 18.1482 9.03448 17.7622V17.7622Z" fill="white"/>
</svg>
