<svg width="54" height="44" viewBox="0 0 54 44" fill="none" xmlns="http://www.w3.org/2000/svg">
<path fill-rule="evenodd" clip-rule="evenodd" d="M40.713 22.3203H44.193C44.17 21.2013 43.502 20.4633 42.5 20.4633C41.492 20.4633 40.789 21.2013 40.713 22.3203ZM45.172 24.3653C44.879 25.4433 43.895 26.1113 42.512 26.1113C40.76 26.1113 39.664 24.8453 39.664 22.8473C39.664 20.8613 40.777 19.5723 42.512 19.5723C44.217 19.5723 45.254 20.7853 45.254 22.7483V23.1343H40.713V23.1813C40.766 24.4293 41.463 25.2203 42.535 25.2203C43.35 25.2203 43.901 24.9223 44.164 24.3653H45.172ZM32.89 19.6833H33.851V20.6793H33.945C34.261 19.9823 34.877 19.5723 35.843 19.5723C37.261 19.5723 38.052 20.4103 38.052 21.9103V26.0003H37.045V22.1563C37.045 21.0193 36.564 20.4803 35.556 20.4803C34.548 20.4803 33.898 21.1543 33.898 22.2613V26.0003H32.89V19.6833ZM30.391 22.8413C30.391 21.3413 29.717 20.4803 28.522 20.4803C27.326 20.4803 26.652 21.3413 26.652 22.8413C26.652 24.3363 27.326 25.2033 28.522 25.2033C29.717 25.2033 30.391 24.3363 30.391 22.8413ZM25.609 22.8413C25.609 20.8083 26.723 19.5723 28.522 19.5723C30.32 19.5723 31.434 20.8083 31.434 22.8413C31.434 24.8693 30.32 26.1113 28.522 26.1113C26.723 26.1113 25.609 24.8693 25.609 22.8413ZM18.973 17.1753H19.981V20.6793H20.074C20.391 19.9823 21.053 19.5723 22.02 19.5723C23.356 19.5723 24.199 20.4273 24.199 21.9103V26.0003H23.192V22.1563C23.192 21.0373 22.688 20.4803 21.733 20.4803C20.602 20.4803 19.981 21.1953 19.981 22.2613V26.0003H18.973V17.1753ZM12.958 22.0453H14.821C16.023 22.0453 16.72 21.4003 16.72 20.2813C16.72 19.1213 16.046 18.4823 14.821 18.4823H12.958V22.0453ZM15.097 17.5453C16.696 17.5453 17.804 18.6703 17.804 20.2813C17.804 21.8633 16.673 22.9823 15.085 22.9823H12.958V26.0003H11.903V17.5453H15.097ZM8.98296 25.9993H9.99096V19.6833H8.98296V25.9993ZM8.78296 17.7613C8.78296 17.3753 9.09996 17.0583 9.48596 17.0583C9.87296 17.0583 10.19 17.3753 10.19 17.7613C10.19 18.1483 9.87296 18.4653 9.48596 18.4653C9.09996 18.4653 8.78296 18.1483 8.78296 17.7613V17.7613Z" fill="white"/>
</svg>
