<svg width="97" height="44" viewBox="0 0 97 44" fill="none" xmlns="http://www.w3.org/2000/svg">
<g clip-path="url(#clip0_1019_854)">
<path d="M17.8744 21.77C17.8744 24.47 16.4144 26.2 13.9944 26.2C11.5644 26.2 10.1144 24.48 10.1144 21.77C10.1144 19.05 11.6044 17.3499 13.9944 17.3499C16.3944 17.34 17.8744 19.06 17.8744 21.77ZM11.2044 21.77C11.2044 23.87 12.2444 25.23 13.9944 25.23C15.7244 25.23 16.7844 23.87 16.7844 21.77C16.7844 19.65 15.7144 18.32 13.9944 18.32C12.2744 18.32 11.2044 19.65 11.2044 21.77ZM19.5744 19.68H20.5344V20.68H20.6244C20.9444 19.98 21.5544 19.57 22.5244 19.57C23.9444 19.57 24.7344 20.41 24.7344 21.91V26H23.7244V22.16C23.7244 21.02 23.2444 20.48 22.2344 20.48C21.2244 20.48 20.5744 21.15 20.5744 22.26V26H19.5644V19.68H19.5744ZM26.6344 17.17H27.6444V26H26.6344V17.17ZM29.6844 28.25V27.39C29.8044 27.41 29.9644 27.42 30.1044 27.42C30.6844 27.42 31.0044 27.14 31.2644 26.38L31.3844 26L29.0444 19.68H30.1344L31.8644 24.88H31.9544L33.6844 19.68H34.7544L32.2844 26.38C31.7444 27.84 31.2444 28.28 30.1244 28.28C30.0044 28.28 29.8244 28.27 29.6844 28.25ZM39.1844 22.84C39.1844 20.81 40.2944 19.57 42.0944 19.57C43.8944 19.57 45.0044 20.81 45.0044 22.84C45.0044 24.87 43.8944 26.11 42.0944 26.11C40.2944 26.11 39.1844 24.87 39.1844 22.84ZM43.9644 22.84C43.9644 21.34 43.2944 20.48 42.0944 20.48C40.8944 20.48 40.2244 21.34 40.2244 22.84C40.2244 24.33 40.8944 25.2 42.0944 25.2C43.2944 25.2 43.9644 24.33 43.9644 22.84ZM46.5944 19.68H47.5544V20.68H47.6444C47.9644 19.98 48.5744 19.57 49.5444 19.57C50.9644 19.57 51.7544 20.41 51.7544 21.91V26H50.7444V22.16C50.7444 21.02 50.2644 20.48 49.2544 20.48C48.2444 20.48 47.5944 21.15 47.5944 22.26V26H46.5844L46.5944 19.68ZM61.7544 23.58H58.3944L57.5444 26H56.4344L59.5544 17.54H60.5944L63.7144 26H62.6044L61.7544 23.58ZM58.7044 22.68H61.4444L60.1244 18.91H60.0344L58.7044 22.68ZM70.7944 22.84C70.7944 24.81 69.7444 26.11 68.1444 26.11C67.2444 26.11 66.5144 25.72 66.1744 25.05H66.0844V28.11H65.0744V19.68H66.0344V20.73H66.1244C66.5244 20 67.2844 19.56 68.1444 19.56C69.7544 19.57 70.7944 20.85 70.7944 22.84ZM69.7544 22.84C69.7544 21.36 69.0644 20.48 67.9044 20.48C66.7644 20.48 66.0444 21.39 66.0444 22.84C66.0444 24.29 66.7644 25.2 67.9044 25.2C69.0644 25.2 69.7544 24.32 69.7544 22.84ZM78.1044 22.84C78.1044 24.81 77.0544 26.11 75.4544 26.11C74.5544 26.11 73.8244 25.72 73.4844 25.05H73.3844V28.11H72.3744V19.68H73.3344V20.73H73.4244C73.8244 20 74.5844 19.56 75.4444 19.56C77.0644 19.57 78.1044 20.85 78.1044 22.84ZM77.0644 22.84C77.0644 21.36 76.3744 20.48 75.2144 20.48C74.0744 20.48 73.3544 21.39 73.3544 22.84C73.3544 24.29 74.0744 25.2 75.2144 25.2C76.3744 25.2 77.0644 24.32 77.0644 22.84ZM79.7544 17.17H80.7644V26H79.7544V17.17ZM87.9044 24.36C87.6144 25.44 86.6244 26.11 85.2444 26.11C83.4944 26.11 82.3944 24.84 82.3944 22.85C82.3944 20.86 83.5044 19.57 85.2444 19.57C86.9544 19.57 87.9844 20.78 87.9844 22.75V23.14H83.4444V23.19C83.4944 24.44 84.1944 25.23 85.2644 25.23C86.0744 25.23 86.6344 24.93 86.8944 24.37L87.9044 24.36ZM83.4444 22.32H86.9244C86.9044 21.2 86.2344 20.46 85.2344 20.46C84.2244 20.46 83.5244 21.2 83.4444 22.32Z" fill="white"/>
</g>
<defs>
<clipPath id="clip0_1019_854">
<rect width="80" height="44" fill="white" transform="translate(8.98438)"/>
</clipPath>
</defs>
</svg>
