<svg width="217" height="57" viewBox="0 0 217 57" fill="none" xmlns="http://www.w3.org/2000/svg">
<path d="M20.5 11.4344C23.9216 11.4344 27.2664 12.449 30.1114 14.35C32.9563 16.2509 35.1737 18.9528 36.4831 22.114C37.7925 25.2751 38.1351 28.7536 37.4676 32.1094C36.8001 35.4653 35.1524 38.5479 32.733 40.9673C30.3135 43.3868 27.2309 45.0344 23.8751 45.702C20.5192 46.3695 17.0407 46.0269 13.8796 44.7175C10.7184 43.4081 8.01653 41.1907 6.11558 38.3457C4.21464 35.5008 3.20001 32.156 3.20001 28.7344C3.2053 24.1478 5.02968 19.7505 8.27291 16.5073C11.5161 13.264 15.9134 11.4397 20.5 11.4344M20.5 9.23438C16.6433 9.23438 12.8731 10.378 9.66639 12.5207C6.45963 14.6634 3.96027 17.7089 2.48436 21.272C1.00845 24.8352 0.622284 28.756 1.3747 32.5386C2.12711 36.3213 3.9843 39.7958 6.71143 42.523C9.43855 45.2501 12.9131 47.1073 16.6957 47.8597C20.4784 48.6121 24.3992 48.2259 27.9623 46.75C31.5255 45.2741 34.571 42.7748 36.7137 39.568C38.8564 36.3612 40 32.5911 40 28.7344C40 23.5627 37.9455 18.6028 34.2886 14.9458C30.6316 11.2888 25.6717 9.23438 20.5 9.23438V9.23438Z" fill="#6E6E73"/>
<path d="M28.5 33.7344H12.5C12.2348 33.7344 11.9804 33.629 11.7929 33.4415C11.6054 33.2539 11.5 32.9996 11.5 32.7344C11.5 32.4692 11.6054 32.2148 11.7929 32.0273C11.9804 31.8397 12.2348 31.7344 12.5 31.7344H28.5C28.7652 31.7344 29.0196 31.8397 29.2071 32.0273C29.3946 32.2148 29.5 32.4692 29.5 32.7344C29.5 32.9996 29.3946 33.2539 29.2071 33.4415C29.0196 33.629 28.7652 33.7344 28.5 33.7344Z" fill="#6E6E73"/>
<path d="M31.5 25.7344H9.5C9.23478 25.7344 8.98043 25.629 8.79289 25.4415C8.60536 25.2539 8.5 24.9996 8.5 24.7344C8.5 24.4692 8.60536 24.2148 8.79289 24.0273C8.98043 23.8397 9.23478 23.7344 9.5 23.7344H31.5C31.7652 23.7344 32.0196 23.8397 32.2071 24.0273C32.3946 24.2148 32.5 24.4692 32.5 24.7344C32.5 24.9996 32.3946 25.2539 32.2071 25.4415C32.0196 25.629 31.7652 25.7344 31.5 25.7344Z" fill="#6E6E73"/>
</svg>
