<svg width="217" height="57" viewBox="0 0 217 57" fill="none" xmlns="http://www.w3.org/2000/svg">
<path d="M18.744 33.7651C18.194 33.8101 17.636 33.8381 17.067 33.8381C16.648 33.8381 16.222 33.8251 15.801 33.8001L15.131 33.7601L14.573 34.1321C12.8638 35.281 11.0326 36.2372 9.113 36.9831C9.62191 36.2805 10.0852 35.546 10.5 34.7841L11.465 32.9411L9.586 32.0491C5.521 30.1241 3 26.5171 3 22.6351C3 16.4491 9.468 11.4161 17.417 11.4161C25.317 11.4161 31.747 16.3871 31.827 22.5161C32.4886 22.4387 33.1539 22.3976 33.82 22.3931C33.663 15.1931 26.453 9.41211 17.42 9.41211C8.282 9.41811 1 15.3291 1 22.6351C1 27.4291 4.075 31.6491 8.723 33.8541C7.99814 35.1157 7.17669 36.3193 6.266 37.4541C5.516 38.3951 5.898 39.4541 7.222 39.4541C9.046 39.4541 12.768 37.7341 15.681 35.7931C16.1477 35.8211 16.6093 35.8348 17.066 35.8341C17.623 35.8341 18.172 35.8121 18.715 35.7721C18.696 35.5121 18.668 35.2541 18.668 34.9901C18.6695 34.5806 18.6949 34.1716 18.744 33.7651Z" fill="#6E6E73"/>
<path d="M47 34.9945C47 29.1365 41.161 24.3945 33.835 24.3945C33.783 24.3945 33.735 24.4005 33.68 24.4005C32.9878 24.4085 32.2968 24.4599 31.611 24.5545C25.981 25.3175 21.626 28.9195 20.819 33.4685C20.7248 33.9702 20.6749 34.4791 20.67 34.9895C20.67 35.1725 20.693 35.3485 20.703 35.5285C21.049 41.3675 26.93 45.5715 34.116 45.5715C34.483 45.5715 34.854 45.5605 35.227 45.5385C37.563 47.0945 40.547 48.4735 42.01 48.4735C43.072 48.4735 43.378 47.6245 42.777 46.8735C42.0467 45.9632 41.3881 44.9977 40.807 43.9855C44.534 42.2185 47 38.8345 47 34.9945ZM39.95 42.1805L38.07 43.0725L39.035 44.9155C39.157 45.1485 39.295 45.3875 39.441 45.6255C38.3629 45.1228 37.3246 44.5388 36.335 43.8785L35.777 43.5065L35.107 43.5465C34.774 43.5665 34.443 43.5765 34.115 43.5765C27.744 43.5765 22.749 39.8615 22.675 35.1005C22.675 35.0645 22.668 35.0305 22.668 34.9955C22.6726 34.2901 22.7884 33.5899 23.011 32.9205C23.981 29.9205 26.99 27.5495 30.84 26.7205C31.6048 26.5566 32.3818 26.4562 33.163 26.4205C33.386 26.4105 33.608 26.3945 33.834 26.3945C39.991 26.3945 44.999 30.2505 44.999 34.9945C44.9267 36.548 44.4134 38.0487 43.5192 39.3212C42.6251 40.5936 41.3871 41.585 39.95 42.1795V42.1805Z" fill="#6E6E73"/>
</svg>
