<svg width="14" height="73" viewBox="0 0 14 73" fill="none" xmlns="http://www.w3.org/2000/svg">
<path d="M4.02003 16.6208C3.77003 16.4608 3.51003 16.2308 3.25003 15.9108C3.07003 15.7008 2.85003 15.4008 2.59003 15.0108C2.14003 14.3608 1.77003 13.6108 1.49003 12.7608C1.18003 11.8308 1.03003 10.9408 1.03003 10.0708C1.03003 9.10078 1.24003 8.25078 1.65003 7.54078C1.97003 6.97078 2.40003 6.52078 2.95003 6.19078C3.50003 5.85078 4.08003 5.68078 4.71003 5.67078C4.93003 5.67078 5.16003 5.70078 5.41003 5.76078C5.59003 5.81078 5.81003 5.89078 6.07003 5.99078C6.41003 6.12078 6.60003 6.20078 6.66003 6.22078C6.86003 6.29078 7.03003 6.32078 7.16003 6.32078C7.26003 6.32078 7.40003 6.29078 7.56003 6.24078C7.65003 6.21078 7.82003 6.15078 8.06003 6.05078C8.30003 5.96078 8.49003 5.89078 8.64003 5.83078C8.87003 5.76078 9.09003 5.70078 9.29003 5.67078C9.53003 5.63078 9.77003 5.62078 10 5.64078C10.44 5.67078 10.84 5.76078 11.2 5.90078C11.83 6.15078 12.34 6.55078 12.72 7.11078C12.56 7.21078 12.41 7.32078 12.27 7.45078C11.96 7.73078 11.7 8.04078 11.51 8.38078C11.24 8.86078 11.11 9.39078 11.11 9.94078C11.12 10.6108 11.29 11.2008 11.63 11.7108C11.87 12.0808 12.19 12.4008 12.58 12.6608C12.77 12.7908 12.94 12.8808 13.1 12.9408C13.02 13.2008 12.93 13.4308 12.85 13.6208C12.63 14.1408 12.37 14.6108 12.08 15.0508C11.81 15.4408 11.6 15.7308 11.44 15.9208C11.19 16.2208 10.95 16.4408 10.71 16.6008C10.43 16.7808 10.13 16.8708 9.81003 16.8708C9.59003 16.8808 9.38003 16.8508 9.17003 16.7908C9.05003 16.7508 8.87003 16.6908 8.64003 16.5908C8.41003 16.4908 8.22003 16.4208 8.08003 16.3808C7.85003 16.3208 7.61003 16.2908 7.36003 16.2908C7.11003 16.2908 6.87003 16.3208 6.64003 16.3808C6.48003 16.4208 6.30003 16.4908 6.08003 16.5808C5.82003 16.6908 5.65003 16.7608 5.55003 16.7908C5.35003 16.8508 5.14003 16.8908 4.94003 16.9008C4.62003 16.9008 4.32003 16.8108 4.02003 16.6208ZM8.26003 5.20078C7.84003 5.41078 7.44003 5.50078 7.04003 5.47078C6.98003 5.07078 7.04003 4.66078 7.21003 4.21078C7.36003 3.83078 7.56003 3.48078 7.83003 3.17078C8.10003 2.86078 8.43003 2.60078 8.84003 2.39078C9.25003 2.18078 9.64003 2.07078 10.01 2.05078C10.06 2.47078 10.01 2.89078 9.86003 3.33078C9.72003 3.73078 9.51003 4.09078 9.24003 4.42078C8.97003 4.75078 8.64003 5.01078 8.26003 5.20078Z" fill="#555555"/>
<path d="M4.02003 34.6208C3.77003 34.4608 3.51003 34.2308 3.25003 33.9108C3.07003 33.7008 2.85003 33.4008 2.59003 33.0108C2.14003 32.3608 1.77003 31.6108 1.49003 30.7608C1.18003 29.8308 1.03003 28.9408 1.03003 28.0708C1.03003 27.1008 1.24003 26.2508 1.65003 25.5408C1.97003 24.9708 2.40003 24.5208 2.95003 24.1908C3.50003 23.8508 4.08003 23.6808 4.71003 23.6708C4.93003 23.6708 5.16003 23.7008 5.41003 23.7608C5.59003 23.8108 5.81003 23.8908 6.07003 23.9908C6.41003 24.1208 6.60003 24.2008 6.66003 24.2208C6.86003 24.2908 7.03003 24.3208 7.16003 24.3208C7.26003 24.3208 7.40003 24.2908 7.56003 24.2408C7.65003 24.2108 7.82003 24.1508 8.06003 24.0508C8.30003 23.9608 8.49003 23.8908 8.64003 23.8308C8.87003 23.7608 9.09003 23.7008 9.29003 23.6708C9.53003 23.6308 9.77003 23.6208 10 23.6408C10.44 23.6708 10.84 23.7608 11.2 23.9008C11.83 24.1508 12.34 24.5508 12.72 25.1108C12.56 25.2108 12.41 25.3208 12.27 25.4508C11.96 25.7308 11.7 26.0408 11.51 26.3808C11.24 26.8608 11.11 27.3908 11.11 27.9408C11.12 28.6108 11.29 29.2008 11.63 29.7108C11.87 30.0808 12.19 30.4008 12.58 30.6608C12.77 30.7908 12.94 30.8808 13.1 30.9408C13.02 31.2008 12.93 31.4308 12.85 31.6208C12.63 32.1408 12.37 32.6108 12.08 33.0508C11.81 33.4408 11.6 33.7308 11.44 33.9208C11.19 34.2208 10.95 34.4408 10.71 34.6008C10.43 34.7808 10.13 34.8708 9.81003 34.8708C9.59003 34.8808 9.38003 34.8508 9.17003 34.7908C9.05003 34.7508 8.87003 34.6908 8.64003 34.5908C8.41003 34.4908 8.22003 34.4208 8.08003 34.3808C7.85003 34.3208 7.61003 34.2908 7.36003 34.2908C7.11003 34.2908 6.87003 34.3208 6.64003 34.3808C6.48003 34.4208 6.30003 34.4908 6.08003 34.5808C5.82003 34.6908 5.65003 34.7608 5.55003 34.7908C5.35003 34.8508 5.14003 34.8908 4.94003 34.9008C4.62003 34.9008 4.32003 34.8108 4.02003 34.6208ZM8.26003 23.2008C7.84003 23.4108 7.44003 23.5008 7.04003 23.4708C6.98003 23.0708 7.04003 22.6608 7.21003 22.2108C7.36003 21.8308 7.56003 21.4808 7.83003 21.1708C8.10003 20.8608 8.43003 20.6008 8.84003 20.3908C9.25003 20.1808 9.64003 20.0708 10.01 20.0508C10.06 20.4708 10.01 20.8908 9.86003 21.3308C9.72003 21.7308 9.51003 22.0908 9.24003 22.4208C8.97003 22.7508 8.64003 23.0108 8.26003 23.2008Z" fill="#333333"/>
<path d="M4.02003 52.6208C3.77003 52.4608 3.51003 52.2308 3.25003 51.9108C3.07003 51.7008 2.85003 51.4008 2.59003 51.0108C2.14003 50.3608 1.77003 49.6108 1.49003 48.7608C1.18003 47.8308 1.03003 46.9408 1.03003 46.0708C1.03003 45.1008 1.24003 44.2508 1.65003 43.5408C1.97003 42.9708 2.40003 42.5208 2.95003 42.1908C3.50003 41.8508 4.08003 41.6808 4.71003 41.6708C4.93003 41.6708 5.16003 41.7008 5.41003 41.7608C5.59003 41.8108 5.81003 41.8908 6.07003 41.9908C6.41003 42.1208 6.60003 42.2008 6.66003 42.2208C6.86003 42.2908 7.03003 42.3208 7.16003 42.3208C7.26003 42.3208 7.40003 42.2908 7.56003 42.2408C7.65003 42.2108 7.82003 42.1508 8.06003 42.0508C8.30003 41.9608 8.49003 41.8908 8.64003 41.8308C8.87003 41.7608 9.09003 41.7008 9.29003 41.6708C9.53003 41.6308 9.77003 41.6208 10 41.6408C10.44 41.6708 10.84 41.7608 11.2 41.9008C11.83 42.1508 12.34 42.5508 12.72 43.1108C12.56 43.2108 12.41 43.3208 12.27 43.4508C11.96 43.7308 11.7 44.0408 11.51 44.3808C11.24 44.8608 11.11 45.3908 11.11 45.9408C11.12 46.6108 11.29 47.2008 11.63 47.7108C11.87 48.0808 12.19 48.4008 12.58 48.6608C12.77 48.7908 12.94 48.8808 13.1 48.9408C13.02 49.2008 12.93 49.4308 12.85 49.6208C12.63 50.1408 12.37 50.6108 12.08 51.0508C11.81 51.4408 11.6 51.7308 11.44 51.9208C11.19 52.2208 10.95 52.4408 10.71 52.6008C10.43 52.7808 10.13 52.8708 9.81003 52.8708C9.59003 52.8808 9.38003 52.8508 9.17003 52.7908C9.05003 52.7508 8.87003 52.6908 8.64003 52.5908C8.41003 52.4908 8.22003 52.4208 8.08003 52.3808C7.85003 52.3208 7.61003 52.2908 7.36003 52.2908C7.11003 52.2908 6.87003 52.3208 6.64003 52.3808C6.48003 52.4208 6.30003 52.4908 6.08003 52.5808C5.82003 52.6908 5.65003 52.7608 5.55003 52.7908C5.35003 52.8508 5.14003 52.8908 4.94003 52.9008C4.62003 52.9008 4.32003 52.8108 4.02003 52.6208ZM8.26003 41.2008C7.84003 41.4108 7.44003 41.5008 7.04003 41.4708C6.98003 41.0708 7.04003 40.6608 7.21003 40.2108C7.36003 39.8308 7.56003 39.4808 7.83003 39.1708C8.10003 38.8608 8.43003 38.6008 8.84003 38.3908C9.25003 38.1808 9.64003 38.0708 10.01 38.0508C10.06 38.4708 10.01 38.8908 9.86003 39.3308C9.72003 39.7308 9.51003 40.0908 9.24003 40.4208C8.97003 40.7508 8.64003 41.0108 8.26003 41.2008Z" fill="#515154"/>
<path d="M4.02003 70.6208C3.77003 70.4608 3.51003 70.2308 3.25003 69.9108C3.07003 69.7008 2.85003 69.4008 2.59003 69.0108C2.14003 68.3608 1.77003 67.6108 1.49003 66.7608C1.18003 65.8308 1.03003 64.9408 1.03003 64.0708C1.03003 63.1008 1.24003 62.2508 1.65003 61.5408C1.97003 60.9708 2.40003 60.5208 2.95003 60.1908C3.50003 59.8508 4.08003 59.6808 4.71003 59.6708C4.93003 59.6708 5.16003 59.7008 5.41003 59.7608C5.59003 59.8108 5.81003 59.8908 6.07003 59.9908C6.41003 60.1208 6.60003 60.2008 6.66003 60.2208C6.86003 60.2908 7.03003 60.3208 7.16003 60.3208C7.26003 60.3208 7.40003 60.2908 7.56003 60.2408C7.65003 60.2108 7.82003 60.1508 8.06003 60.0508C8.30003 59.9608 8.49003 59.8908 8.64003 59.8308C8.87003 59.7608 9.09003 59.7008 9.29003 59.6708C9.53003 59.6308 9.77003 59.6208 10 59.6408C10.44 59.6708 10.84 59.7608 11.2 59.9008C11.83 60.1508 12.34 60.5508 12.72 61.1108C12.56 61.2108 12.41 61.3208 12.27 61.4508C11.96 61.7308 11.7 62.0408 11.51 62.3808C11.24 62.8608 11.11 63.3908 11.11 63.9408C11.12 64.6108 11.29 65.2008 11.63 65.7108C11.87 66.0808 12.19 66.4008 12.58 66.6608C12.77 66.7908 12.94 66.8808 13.1 66.9408C13.02 67.2008 12.93 67.4308 12.85 67.6208C12.63 68.1408 12.37 68.6108 12.08 69.0508C11.81 69.4408 11.6 69.7308 11.44 69.9208C11.19 70.2208 10.95 70.4408 10.71 70.6008C10.43 70.7808 10.13 70.8708 9.81003 70.8708C9.59003 70.8808 9.38003 70.8508 9.17003 70.7908C9.05003 70.7508 8.87003 70.6908 8.64003 70.5908C8.41003 70.4908 8.22003 70.4208 8.08003 70.3808C7.85003 70.3208 7.61003 70.2908 7.36003 70.2908C7.11003 70.2908 6.87003 70.3208 6.64003 70.3808C6.48003 70.4208 6.30003 70.4908 6.08003 70.5808C5.82003 70.6908 5.65003 70.7608 5.55003 70.7908C5.35003 70.8508 5.14003 70.8908 4.94003 70.9008C4.62003 70.9008 4.32003 70.8108 4.02003 70.6208ZM8.26003 59.2008C7.84003 59.4108 7.44003 59.5008 7.04003 59.4708C6.98003 59.0708 7.04003 58.6608 7.21003 58.2108C7.36003 57.8308 7.56003 57.4808 7.83003 57.1708C8.10003 56.8608 8.43003 56.6008 8.84003 56.3908C9.25003 56.1808 9.64003 56.0708 10.01 56.0508C10.06 56.4708 10.01 56.8908 9.86003 57.3308C9.72003 57.7308 9.51003 58.0908 9.24003 58.4208C8.97003 58.7508 8.64003 59.0108 8.26003 59.2008Z" fill="#1D1D1F"/>
</svg>
